/* XPM */
static char * audela_xpm[] = {
"32 32 2 1",
" 	c #A4C5D5",
".	c #FFFFFF",
"..........         .............",
"..........            ..........",
".........               ........",
"..........                 .....",
"...........                 ....",
".................            ...",
".....................          .",
".......................        .",
".........................      .",
"..........................     .",
"..........................     .",
"..........................     .",
"..........................     .",
"...                            .",
"...                            .",
".                              .",
".                              .",
".        ............          .",
".       ................       .",
"        ................       .",
"        ................       .",
"        ................       .",
"        ................       .",
"        ................       .",
".        .. ..........         .",
".           .........          .",
"...                            .",
"....                           .",
"......                          ",
"..........              ..      ",
".............          ....     ",
"............................   ."};
